<svg xmlns="http://www.w3.org/2000/svg" width="275.131" height="24.078" viewBox="0 0 275.131 24.078">
  <g id="Group_2453" data-name="Group 2453" transform="translate(-6682.478 202.363)">
    <path id="Path_4878" data-name="Path 4878" d="M3.57,1.184C-1.313,43.405.163,87.216.367,129.642Q.64,193.893,4,258.054c.182,3.7,6,3.7,5.769,0Q6.023,193.9,5.2,129.642c-.522-42.721,2.43-85.782.818-128.458a1.227,1.227,0,0,0-2.453,0Z" transform="translate(6957.609 -202.363) rotate(90)" fill="#40d3f9"/>
    <path id="Path_4879" data-name="Path 4879" d="M1.834,1.218C-1.3,45.074.2,89.68,1.789,133.582c1.59,44.084,4.769,88.122,9.2,132.024.386,3.861,6.518,3.884,6.087,0Q9.92,199.753,6.854,133.582C4.81,89.453,5.582,45.347,4.355,1.218a1.261,1.261,0,0,0-2.521,0Z" transform="translate(6950.988 -195.381) rotate(90)" fill="#40d3f9"/>
  </g>
</svg>
