<svg id="instagram" xmlns="http://www.w3.org/2000/svg" width="31.05" height="31.05" viewBox="0 0 31.05 31.05">
  <g id="Group_2524" data-name="Group 2524">
    <g id="Group_2523" data-name="Group 2523">
      <path id="Path_8257" data-name="Path 8257" d="M22.031,0H9.02A9.03,9.03,0,0,0,0,9.02V22.031a9.03,9.03,0,0,0,9.02,9.02H22.031a9.03,9.03,0,0,0,9.02-9.02V9.02A9.03,9.03,0,0,0,22.031,0Zm6.594,22.031a6.6,6.6,0,0,1-6.594,6.594H9.02a6.6,6.6,0,0,1-6.594-6.594V9.02A6.6,6.6,0,0,1,9.02,2.426H22.031A6.6,6.6,0,0,1,28.625,9.02Z" fill="#fff"/>
    </g>
  </g>
  <g id="Group_2526" data-name="Group 2526" transform="translate(7.156 7.156)">
    <g id="Group_2525" data-name="Group 2525">
      <path id="Path_8258" data-name="Path 8258" d="M126.369,118a8.369,8.369,0,1,0,8.369,8.369A8.378,8.378,0,0,0,126.369,118Zm0,14.312a5.943,5.943,0,1,1,5.943-5.943A5.95,5.95,0,0,1,126.369,132.312Z" transform="translate(-118 -118)" fill="#fff"/>
    </g>
  </g>
  <g id="Group_2528" data-name="Group 2528" transform="translate(22.841 5.293)">
    <g id="Group_2527" data-name="Group 2527" transform="translate(0 0)">
      <ellipse id="Ellipse_36" data-name="Ellipse 36" cx="1.224" cy="1.631" rx="1.224" ry="1.631" fill="#fff"/>
    </g>
  </g>
</svg>
