<svg xmlns="http://www.w3.org/2000/svg" width="47.834" height="48.099" viewBox="0 0 47.834 48.099">
  <path id="whatsapp" d="M41.114,6.99A23.83,23.83,0,0,0,3.629,35.748L.25,48.1l12.626-3.314a23.778,23.778,0,0,0,11.381,2.9h.01A23.848,23.848,0,0,0,41.114,6.99ZM24.267,43.661h-.008A19.76,19.76,0,0,1,14.183,40.9l-.723-.429L5.968,42.437l2-7.31L7.5,34.377a19.793,19.793,0,1,1,16.769,9.284ZM35.125,28.824c-.595-.3-3.521-1.739-4.067-1.938s-.942-.3-1.339.3-1.537,1.938-1.885,2.335-.694.447-1.289.149a16.252,16.252,0,0,1-4.786-2.956,17.962,17.962,0,0,1-3.311-4.125c-.347-.6,0-.888.261-1.215A16.846,16.846,0,0,0,20.2,19.334a1.1,1.1,0,0,0-.05-1.043c-.148-.3-1.339-3.229-1.834-4.422-.483-1.161-.974-1-1.339-1.022-.347-.017-.744-.021-1.141-.021a2.185,2.185,0,0,0-1.587.745,6.682,6.682,0,0,0-2.083,4.968c0,2.931,2.132,5.763,2.43,6.161s4.2,6.413,10.166,8.992a34.046,34.046,0,0,0,3.393,1.255,8.152,8.152,0,0,0,3.748.236c1.144-.171,3.521-1.441,4.017-2.832a4.98,4.98,0,0,0,.347-2.832c-.148-.248-.545-.4-1.14-.7Zm0,0" transform="translate(-0.25)" fill="#fff" fill-rule="evenodd"/>
</svg>
